<?xml version="1.0" encoding="UTF-8" standalone="no"?>
<!-- Created with Inkscape (http://www.inkscape.org/) -->

<svg
   version="1.1"
   width="380"
   height="380"
   id="svg3857"
   sodipodi:docname="nfc.svg"
   inkscape:version="1.2.2 (b0a8486541, 2022-12-01)"
   xmlns:inkscape="http://www.inkscape.org/namespaces/inkscape"
   xmlns:sodipodi="http://sodipodi.sourceforge.net/DTD/sodipodi-0.dtd"
   xmlns="http://www.w3.org/2000/svg"
   xmlns:svg="http://www.w3.org/2000/svg"
   xmlns:rdf="http://www.w3.org/1999/02/22-rdf-syntax-ns#"
   xmlns:cc="http://creativecommons.org/ns#"
   xmlns:dc="http://purl.org/dc/elements/1.1/">
  <sodipodi:namedview
     id="namedview7"
     pagecolor="#ffffff"
     bordercolor="#999999"
     borderopacity="1"
     inkscape:showpageshadow="0"
     inkscape:pageopacity="0"
     inkscape:pagecheckerboard="0"
     inkscape:deskcolor="#d1d1d1"
     showgrid="false"
     inkscape:zoom="0.62105263"
     inkscape:cx="173.09322"
     inkscape:cy="190.80508"
     inkscape:window-width="1920"
     inkscape:window-height="1008"
     inkscape:window-x="1080"
     inkscape:window-y="557"
     inkscape:window-maximized="1"
     inkscape:current-layer="svg3857" />
  <defs
     id="defs3859" />
  <metadata
     id="metadata3862">
    <rdf:RDF>
      <cc:Work
         rdf:about="">
        <dc:format>image/svg+xml</dc:format>
        <dc:type
           rdf:resource="http://purl.org/dc/dcmitype/StillImage" />
        <dc:title />
      </cc:Work>
    </rdf:RDF>
  </metadata>
  <g
     transform="translate(18.744744,-692.27555)"
     id="layer1"
     style="fill:#ffffff">
    <path
       d="m 284.21468,1022.757 c -2.36296,-1.2007 -5.35898,-3.5883 -6.65783,-5.3057 -1.29884,-1.7175 -2.86582,-5.0183 -3.48217,-7.3352 -0.61635,-2.3169 -0.82036,-5.4669 -0.45335,-7 0.367,-1.5331 2.5852,-7.31564 4.92932,-12.85008 2.34413,-5.53445 6.30966,-16.42168 8.81232,-24.19384 2.50263,-7.77216 5.68779,-19.51888 7.07812,-26.10381 1.39033,-6.58494 3.26198,-17.74771 4.15922,-24.80617 1.02632,-8.07383 1.63138,-20.25121 1.63138,-32.83357 0,-12.44174 -0.60589,-24.76367 -1.60323,-32.6052 -0.88177,-6.93286 -2.50916,-17.05786 -3.61642,-22.5 -1.10726,-5.44214 -3.39978,-14.8448 -5.09447,-20.8948 -1.69471,-6.05 -6.06697,-18.42501 -9.71616,-27.50001 -4.91504,-12.22299 -6.62403,-17.68982 -6.59301,-21.09016 0.0271,-2.97109 0.84438,-5.88863 2.31701,-8.27141 1.25132,-2.02468 3.83994,-4.87478 5.75248,-6.33355 2.4575,-1.87442 5.05569,-2.78318 8.85902,-3.09859 2.95992,-0.24546 6.53881,-0.15587 7.95308,0.19909 1.41426,0.35496 4.31816,2.22349 6.45313,4.1523 2.81479,2.543 5.14833,6.39905 8.48986,14.02906 2.53447,5.78718 6.37466,15.64527 8.53375,21.90687 2.15909,6.2616 5.48542,17.59961 7.39184,25.19557 1.90642,7.59595 4.39676,19.43583 5.53409,26.31083 1.13733,6.875 2.52457,17.9 3.08277,24.5 0.55819,6.6 1.0149,18.3 1.0149,26 0,7.7 -0.45671,19.4 -1.0149,26 -0.5582,6.6 -1.94158,17.625 -3.07418,24.5 -1.1326,6.875 -3.77652,19.25 -5.87537,27.5 -2.09886,8.25 -5.93264,20.85 -8.51952,28 -2.58688,7.15001 -6.56912,16.81417 -8.84941,21.47577 -2.80442,5.7332 -5.36439,9.4341 -7.91134,11.4373 -2.95547,2.3246 -4.99882,3.0408 -9.5,3.33 -4.43482,0.2849 -6.70846,-0.1265 -10.03093,-1.8147 z m -62.8084,-26.95687 c -1.70757,-0.52435 -5.15879,-3.14938 -7.66938,-5.83339 -3.6078,-3.85705 -4.71528,-5.88419 -5.28302,-9.67016 -0.61747,-4.11762 -0.26352,-5.85555 2.52116,-12.37904 1.78171,-4.1739 5.19795,-13.23693 7.59165,-20.14007 2.3937,-6.90314 5.4843,-18.15314 6.868,-25 1.38371,-6.84686 3.02053,-18.89884 3.63738,-26.78216 0.83044,-10.61301 0.82886,-17.88061 -0.006,-28 -0.62022,-7.51668 -2.24043,-19.18664 -3.60048,-25.93326 -1.36004,-6.74662 -3.87193,-16.63436 -5.58197,-21.97275 -1.71004,-5.33839 -4.81801,-13.64614 -6.90662,-18.46165 -2.0886,-4.81551 -4.10611,-10.16077 -4.48335,-11.87834 -0.37767,-1.71952 -0.13028,-5.10732 0.55051,-7.53888 0.75675,-2.70284 2.75913,-5.93873 5.16151,-8.34111 2.1588,-2.1588 5.52652,-4.45361 7.48383,-5.09958 1.9573,-0.64597 5.58117,-0.94653 8.05304,-0.66792 2.69084,0.3033 6.15446,1.66881 8.63142,3.4029 2.88551,2.0201 5.12114,4.87538 7.38977,9.43803 1.78897,3.59794 5.069,11.36167 7.28896,17.25274 2.21996,5.89107 5.5551,16.65601 7.41142,23.92209 1.85632,7.26608 4.1916,18.38605 5.1895,24.71105 1.39912,8.86806 3.23591,14.60717 3.21226,33.5 -0.0262,20.89056 -1.79756,28.97994 -3.75563,40.43931 -1.263,7.39162 -3.78769,18.86662 -5.6104,25.5 -1.82272,6.63338 -5.1562,16.78569 -7.40774,22.56069 -2.25153,5.775 -5.33675,12.95951 -6.85604,15.96557 -1.76,3.48233 -4.2722,6.52675 -6.92335,8.39005 -2.88866,2.03022 -5.63496,3.02304 -8.98132,3.24685 -2.65118,0.17732 -6.21743,-0.10662 -7.925,-0.63097 z m -67.89533,-35.86972 c -1.65,-0.41497 -3.98976,-1.28629 -5.19947,-1.93627 -1.20971,-0.64999 -12.23471,-8.92621 -24.5,-18.3916 -12.26528,-9.46539 -31.300504,-24.16036 -42.300513,-32.6555 -11,-8.49514 -23.669,-17.84706 -28.15333,-20.78206 -4.48434,-2.93499 -8.87184,-5.33635 -9.75,-5.33635 -1.31613,0 -1.59528,1.27383 -1.58874,7.25 0.004,3.9875 1.12936,12.63998 2.5,19.22774 1.37064,6.58776 2.49207,15.10818 2.49207,18.93428 0,5.00813 -0.5842,8.16333 -2.08583,11.26528 -1.1472,2.36981 -3.41827,5.25753 -5.04682,6.41716 -1.62855,1.15963 -4.66216,2.33659 -6.74136,2.61547 -2.64178,0.35433 -5.00045,-0.1154 -7.83138,-1.55963 -2.22807,-1.13668 -5.89083,-4.15681 -8.13948,-6.7114 -2.24864,-2.55459 -4.99228,-7.06046 -6.09699,-10.01304 -1.1046996,-2.95259 -3.0186596,-9.99378 -4.2532393,-15.6471 -1.95185,-8.93779 -3.31344,-13.50602 -3.29551,-32.6359 0.0178,-19.01099 1.39853,-23.06943 3.34791,-32.14286 1.2407297,-5.775 3.3814093,-12.97367 4.7570693,-15.99705 1.37566,-3.02338 3.48769,-6.55364 4.69341,-7.84502 1.20572,-1.29138 3.40737,-2.9802 4.89256,-3.75294 1.48519,-0.77275 4.00989,-1.40499 5.61045,-1.40499 1.60057,0 4.61189,1.15485 6.69184,2.56634 2.07994,1.41149 15.75524,11.89488 30.38954,23.29641 14.63431,11.40154 37.407833,29.06903 50.607823,39.26109 13.19999,10.19206 25.43001,19.56928 27.1778,20.83828 1.7478,1.26899 3.8275,2.05795 4.62155,1.75325 0.86539,-0.33209 1.87505,-3.09 2.52044,-6.88469 0.5922,-3.48188 1.32422,-8.8781 1.62673,-11.99161 0.30251,-3.11351 0.0816,-10.2257 -0.49096,-15.80485 -0.57253,-5.57916 -2.12074,-14.28174 -3.44048,-19.33907 -1.31973,-5.05733 -3.79614,-12.56955 -5.50312,-16.69381 -1.70698,-4.12426 -3.59322,-10.42426 -4.19163,-14 -0.81468,-4.86808 -0.78805,-7.58921 0.10601,-10.8317 0.65671,-2.38169 2.65734,-5.92712 4.44586,-7.87873 2.72137,-2.96951 4.09629,-3.62951 8.42824,-4.04576 3.03592,-0.29171 6.42871,0.0213 8.20493,0.75708 1.66569,0.68995 5.26406,3.70048 7.99636,6.69005 2.73231,2.98958 6.50768,8.68052 8.38971,12.64653 1.88204,3.96601 4.99245,11.92474 6.91203,17.68606 1.91957,5.76132 4.32007,14.30013 5.33446,18.97513 1.43879,6.63098 2.91577,12.78776 2.91577,28 0,15.22951 -1.47603,21.3615 -2.91892,28 -1.01612,4.675 -2.96277,12.04627 -4.32589,16.3806 -1.36313,4.33432 -4.03945,11.30606 -5.94738,15.49273 -1.90793,4.18668 -4.45729,8.67191 -5.66524,9.96717 -1.20796,1.29527 -3.33646,3.17239 -4.73003,4.17139 -1.39358,0.99899 -4.09357,2.04766 -6,2.33036 -1.90643,0.28271 -4.81624,0.17449 -6.46624,-0.24047 z"
       id="path3055"
       style="fill:#ffffff;fill-opacity:1" />
  </g>
</svg>
