<?xml version="1.0" encoding="UTF-8" standalone="no"?>
<svg
   xmlns:dc="http://purl.org/dc/elements/1.1/"
   xmlns:cc="http://creativecommons.org/ns#"
   xmlns:rdf="http://www.w3.org/1999/02/22-rdf-syntax-ns#"
   xmlns:svg="http://www.w3.org/2000/svg"
   xmlns="http://www.w3.org/2000/svg"
   xml:space="preserve"
   style="enable-background:new 0 0 32 32;"
   viewBox="0 0 32 32"
   y="0px"
   x="0px"
   id="Capa_1"
   version="1.1"><metadata
     id="metadata44"><rdf:RDF><cc:Work
         rdf:about=""><dc:format>image/svg+xml</dc:format><dc:type
           rdf:resource="http://purl.org/dc/dcmitype/StillImage" /><dc:title></dc:title></cc:Work></rdf:RDF></metadata><defs
     id="defs42" /><path
     id="path6"
     d="m 16.001,17.746 c 3.309,0 6,-2.692 6,-6 0,-3.308 -2.691,-6 -6,-6 -3.309,0 -6,2.691 -6,6 0,3.309 2.691,6 6,6 z m 0,-11 c 2.758,0 5,2.242 5,5 0,2.758 -2.242,5 -5,5 -2.758,0 -5,-2.242 -5,-5 0,-2.758 2.242,-5 5,-5 z"
     style="fill:#ffffff" /><path
     id="path8"
     d="m 15.999,0 c -6.618,0 -12,5.316 -12,12.001 0,7 6.001,14.161 10.376,19.194 0.016,0.02 0.718,0.805 1.586,0.805 0.002,0 0.073,0 0.077,0 0.867,0 1.57,-0.785 1.586,-0.805 C 22.001,26.162 28.001,19.002 28.001,12.001 28.001,5.316 22.618,0 15.999,0 Z m 0.117,29.883 c -0.021,0.02 -0.082,0.064 -0.135,0.098 -0.01,-0.027 -0.084,-0.086 -0.129,-0.133 C 12.187,25.631 5.999,18.514 5.999,12.001 5.999,6.487 10.486,2 15.999,2 c 5.516,0 10.002,4.487 10.002,10.002 0,6.512 -6.188,13.629 -9.885,17.881 z"
     style="fill:#ffffff" /><g
     id="g10" /><g
     id="g12" /><g
     id="g14" /><g
     id="g16" /><g
     id="g18" /><g
     id="g20" /><g
     id="g22" /><g
     id="g24" /><g
     id="g26" /><g
     id="g28" /><g
     id="g30" /><g
     id="g32" /><g
     id="g34" /><g
     id="g36" /><g
     id="g38" /></svg>